# Rhino
g JewelCAD
usemtl Default
v 1.382599949836731 1.382599949836731 1.30429995059967
v 0 1.956500053405762 1.30429995059967
v -1.382599949836731 1.382599949836731 1.30429995059967
v -1.956500053405762 0 1.30429995059967
v -1.382599949836731 -1.382599949836731 1.30429995059967
v 0 -1.956500053405762 1.30429995059967
v 1.382599949836731 -1.382599949836731 1.30429995059967
v 1.956500053405762 0 1.30429995059967
v 1.382599949836731 -1.382599949836731 1.30429995059967
v 2.4096999168396 -0.9977999925613403 0.8511000275611877
v 1.956500053405762 0 1.30429995059967
v 0 -1.956500053405762 1.30429995059967
v 0.9977999925613403 -2.4096999168396 0.8511000275611877
v -1.382599949836731 -1.382599949836731 1.30429995059967
v -0.9977999925613403 -2.4096999168396 0.8511000275611877
v -1.956500053405762 0 1.30429995059967
v -2.4096999168396 -0.9977999925613403 0.8511000275611877
v -1.382599949836731 1.382599949836731 1.30429995059967
v -2.4096999168396 0.9977999925613403 0.8511000275611877
v 0 1.956500053405762 1.30429995059967
v -0.9977999925613403 2.4096999168396 0.8511000275611877
v 1.382599949836731 1.382599949836731 1.30429995059967
v 0.9977999925613403 2.4096999168396 0.8511000275611877
v 2.4096999168396 0.9977999925613403 0.8511000275611877
v 3.260799884796143 0 0
v 2.305399894714355 -2.305399894714355 0
v 0 -3.260799884796143 0
v -2.305399894714355 -2.305399894714355 0
v -3.260799884796143 0 0
v -2.305399894714355 2.305399894714355 0
v 0 3.260799884796143 0
v 2.305399894714355 2.305399894714355 0
v 3.013000011444092 -1.248900055885315 0
v 1.248900055885315 -3.013000011444092 0
v -1.248900055885315 -3.013000011444092 0
v -3.013000011444092 -1.248900055885315 0
v -3.013000011444092 1.248900055885315 0
v -1.248900055885315 3.013000011444092 0
v 1.248900055885315 3.013000011444092 0
v 3.013000011444092 1.248900055885315 0
v 3.013000011444092 -1.248900055885315 0
v 0.6032000184059143 -0.2511000037193298 -2.608599901199341
v 3.260799884796143 0 0
v 2.305399894714355 -2.305399894714355 0
v 1.248900055885315 -3.013000011444092 0
v 0.2511000037193298 -0.6032000184059143 -2.608599901199341
v 0 -3.260799884796143 0
v -1.248900055885315 -3.013000011444092 0
v -0.2511000037193298 -0.6032000184059143 -2.608599901199341
v -2.305399894714355 -2.305399894714355 0
v -3.013000011444092 -1.248900055885315 0
v -0.6032000184059143 -0.2511000037193298 -2.608599901199341
v -3.260799884796143 0 0
v -3.013000011444092 1.248900055885315 0
v -0.6032000184059143 0.2511000037193298 -2.608599901199341
v -2.305399894714355 2.305399894714355 0
v -1.248900055885315 3.013000011444092 0
v -0.2511000037193298 0.6032000184059143 -2.608599901199341
v 0 3.260799884796143 0
v 1.248900055885315 3.013000011444092 0
v 0.2511000037193298 0.6032000184059143 -2.608599901199341
v 2.305399894714355 2.305399894714355 0
v 3.013000011444092 1.248900055885315 0
v 0.6032000184059143 0.2511000037193298 -2.608599901199341
v 0 0 -3.260799884796143
v 0 0 -3.260799884796143
v 0 0 -3.260799884796143
v 0 0 -3.260799884796143
v 0 0 -3.260799884796143
v 0 0 -3.260799884796143
v 0 0 -3.260799884796143
v 0 0 -3.260799884796143
vn 0 0 1
vn 0 0 1
vn 0 0 1
vn 0 0 1
vn 0 0 1
vn 0 0 1
vn 0 0 1
vn 0 0 1
vn 0.3895643651485443 -0.3895643651485443 0.8345533013343811
vn 0.6373208165168762 -0.2640768587589264 0.7239375710487366
vn 0.5510931611061096 0 0.8344437479972839
vn 0 -0.5510931611061096 0.8344437479972839
vn 0.2640768587589264 -0.6373208165168762 0.7239375710487366
vn -0.3895643651485443 -0.3895643651485443 0.8345533013343811
vn -0.2640768587589264 -0.6373208165168762 0.7239375710487366
vn -0.5510931611061096 0 0.8344437479972839
vn -0.6373208165168762 -0.2640768587589264 0.7239375710487366
vn -0.3895643651485443 0.3895643651485443 0.8345533013343811
vn -0.6373208165168762 0.2640768587589264 0.7239375710487366
vn 0 0.5510931611061096 0.8344437479972839
vn -0.2640768587589264 0.6373208165168762 0.7239375710487366
vn 0.3895643651485443 0.3895643651485443 0.8345533013343811
vn 0.2640768587589264 0.6373208165168762 0.7239375710487366
vn 0.6373208165168762 0.2640768587589264 0.7239375710487366
vn 0.7658169269561768 0 0.6430586576461792
vn 0.5414730310440063 -0.5414730310440063 0.6431282162666321
vn 0 -0.7658169269561768 0.6430586576461792
vn -0.5414730310440063 -0.5414730310440063 0.6431282162666321
vn -0.7658169269561768 0 0.6430586576461792
vn -0.5414730310440063 0.5414730310440063 0.6431282162666321
vn 0 0.7658169269561768 0.6430586576461792
vn 0.5414730310440063 0.5414730310440063 0.6431282162666321
vn 0.7327110171318054 -0.3037445247173309 0.6089941263198853
vn 0.3037445247173309 -0.7327110171318054 0.6089941263198853
vn -0.3037445247173309 -0.7327110171318054 0.6089941263198853
vn -0.7327110171318054 -0.3037445247173309 0.6089941263198853
vn -0.7327110171318054 0.3037445247173309 0.6089941263198853
vn -0.3037445247173309 0.7327110171318054 0.6089941263198853
vn 0.3037445247173309 0.7327110171318054 0.6089941263198853
vn 0.7327110171318054 0.3037445247173309 0.6089941263198853
vn 0.6532455086708069 -0.2708241939544678 -0.7070534229278564
vn 0.6424792408943176 -0.2661833465099335 -0.7185866832733154
vn 0.7049703001976013 0 -0.7092368602752686
vn 0.4985815584659576 -0.4985815584659576 -0.7091071009635925
vn 0.2708241939544678 -0.6532455086708069 -0.7070534229278564
vn 0.2661833167076111 -0.6424792408943176 -0.7185867428779602
vn 0 -0.7049703001976013 -0.7092368602752686
vn -0.2708241939544678 -0.6532455086708069 -0.7070534229278564
vn -0.2661833465099335 -0.6424792408943176 -0.7185866832733154
vn -0.4985815584659576 -0.4985815584659576 -0.7091071009635925
vn -0.6532455086708069 -0.2708241939544678 -0.7070534229278564
vn -0.6424792408943176 -0.2661833167076111 -0.7185867428779602
vn -0.7049703001976013 0 -0.7092368602752686
vn -0.6532455086708069 0.2708241939544678 -0.7070534229278564
vn -0.6424792408943176 0.2661833465099335 -0.7185866832733154
vn -0.4985815584659576 0.4985815584659576 -0.7091071009635925
vn -0.2708241939544678 0.6532455086708069 -0.7070534229278564
vn -0.2661833167076111 0.6424792408943176 -0.7185867428779602
vn 0 0.7049703001976013 -0.7092368602752686
vn 0.2708241939544678 0.6532455086708069 -0.7070534229278564
vn 0.2661833465099335 0.6424792408943176 -0.7185866832733154
vn 0.4985815584659576 0.4985815584659576 -0.7091071009635925
vn 0.6532455086708069 0.2708241939544678 -0.7070534229278564
vn 0.6424792408943176 0.2661833465099335 -0.7185866832733154
vn 0.7341471314430237 0 -0.6789904236793518
vn 0.5187708139419556 -0.5187708139419556 -0.6795246005058289
vn 0 -0.7341471314430237 -0.6789904236793518
vn -0.5187708139419556 -0.5187708139419556 -0.6795246005058289
vn -0.7341471314430237 0 -0.6789904236793518
vn -0.5187708139419556 0.5187708139419556 -0.6795246005058289
vn 0 0.7341471314430237 -0.6789904236793518
vn 0.5187708139419556 0.5187708139419556 -0.6795246005058289
f 1//1 2//2 3//3
f 1//1 3//3 4//4
f 1//1 4//4 5//5
f 1//1 5//5 6//6
f 1//1 6//6 7//7
f 1//1 7//7 8//8
f 9//9 10//10 11//11
f 12//12 13//13 9//9
f 14//14 15//15 12//12
f 16//16 17//17 14//14
f 18//18 19//19 16//16
f 20//20 21//21 18//18
f 22//22 23//23 20//20
f 11//11 24//24 22//22
f 24//24 11//11 10//10
f 24//24 10//10 25//25
f 10//10 9//9 13//13
f 10//10 13//13 26//26
f 13//13 12//12 15//15
f 13//13 15//15 27//27
f 15//15 14//14 17//17
f 15//15 17//17 28//28
f 17//17 16//16 19//19
f 17//17 19//19 29//29
f 19//19 18//18 21//21
f 19//19 21//21 30//30
f 21//21 20//20 23//23
f 21//21 23//23 31//31
f 23//23 22//22 24//24
f 23//23 24//24 32//32
f 10//10 33//33 25//25
f 10//10 26//26 33//33
f 13//13 34//34 26//26
f 13//13 27//27 34//34
f 15//15 35//35 27//27
f 15//15 28//28 35//35
f 17//17 36//36 28//28
f 17//17 29//29 36//36
f 19//19 37//37 29//29
f 19//19 30//30 37//37
f 21//21 38//38 30//30
f 21//21 31//31 38//38
f 23//23 39//39 31//31
f 23//23 32//32 39//39
f 24//24 40//40 32//32
f 24//24 25//25 40//40
f 41//41 42//42 43//43
f 44//44 42//42 41//41
f 45//45 46//46 44//44
f 47//47 46//46 45//45
f 48//48 49//49 47//47
f 50//50 49//49 48//48
f 51//51 52//52 50//50
f 53//53 52//52 51//51
f 54//54 55//55 53//53
f 56//56 55//55 54//54
f 57//57 58//58 56//56
f 59//59 58//58 57//57
f 60//60 61//61 59//59
f 62//62 61//61 60//60
f 63//63 64//64 62//62
f 43//43 64//64 63//63
f 42//42 65//65 64//64
f 42//42 64//64 43//43
f 46//46 66//66 42//42
f 46//46 42//42 44//44
f 49//49 67//67 46//46
f 49//49 46//46 47//47
f 52//52 68//68 49//49
f 52//52 49//49 50//50
f 55//55 69//69 52//52
f 55//55 52//52 53//53
f 58//58 70//70 55//55
f 58//58 55//55 56//56
f 61//61 71//71 58//58
f 61//61 58//58 59//59
f 64//64 72//72 61//61
f 64//64 61//61 62//62
